# xmcd CD database file
#
# Track frame offsets:
#	150
#	8008
#	28766
#	45352
#	61562
#	91058
#	114006
#	126627
#	140289
#	153579
#	170314
#	194944
#	213870
#	227682
#	250563
#	268670
#
# Disc length: 3832 seconds
#
# Revision: 5
# Processed by: cddbd v1.5.2PL0 Copyright (c) Steve Scherf et al.
# Submitted via: CDex 1.70beta2
#
DISCID=ca0ef610
DTITLE=Second Royal - SECOND ROYAL VOL. 2
DYEAR=2003
DGENRE=House
TTITLE0=HALFBY - TAKE OFF SR
TTITLE1=RUFUS - BELIEVE IT! (OR NOT)
TTITLE2=宇宙商人 Feat. DJ QURO - SWEET SURPRISE!
TTITLE3=Kate - PILLOW ON THE BEACH
TTITLE4=Handsome Boy Technique - SEASON OF YOUNG MOUSS
TTITLE5=coralie - ONEDAY, NEWDAY
TTITLE6=Meton Milk - SEASHORE
TTITLE7=Satoru Ono - TO BE LOATHSOME
TTITLE8=Collette - DAYBREAK
TTITLE9=FREDO - GRAND SLAM
TTITLE10=BEAT☆NATURE - NE・GE・RO☆STAR
TTITLE11=Scottish Fold - CUT AND PASTE (AND MORE)
TTITLE12=Noise Bacharach - FIRE ENGINES
TTITLE13=*Cbsmgrfc ft.Yobanni - RICH AND FAMOUS
TTITLE14=Sainas - SEARCHIN
TTITLE15=Toss and Volley - OOO LOAD
EXTD=YEAR: 2003
EXTT0=
EXTT1=
EXTT2=
EXTT3=
EXTT4=
EXTT5=
EXTT6=
EXTT7=
EXTT8=
EXTT9=
EXTT10=
EXTT11=
EXTT12=
EXTT13=
EXTT14=
EXTT15=
PLAYORDER=
